<svg width="11" height="19" viewBox="0 0 11 19" fill="none" xmlns="http://www.w3.org/2000/svg">
<path d="M0.478561 18.1286C0.247615 17.8915 0.132141 17.6107 0.132141 17.2863C0.132141 16.9625 0.247615 16.682 0.478561 16.4448L7.24531 9.49623L0.455467 2.5239C0.239916 2.30256 0.132141 2.02588 0.132141 1.69386C0.132141 1.36185 0.247615 1.07726 0.478561 0.840106C0.709508 0.602952 0.982949 0.484375 1.29888 0.484375C1.6142 0.484375 1.88734 0.602952 2.11828 0.840106L9.8781 8.8322C9.97048 8.92706 10.0361 9.02983 10.0749 9.1405C10.113 9.25117 10.1321 9.36975 10.1321 9.49623C10.1321 9.62271 10.113 9.74129 10.0749 9.85196C10.0361 9.96264 9.97048 10.0654 9.8781 10.1603L2.09519 18.1524C1.87964 18.3737 1.6142 18.4844 1.29888 18.4844C0.982949 18.4844 0.709508 18.3658 0.478561 18.1286Z" fill="white"/>
</svg>
