<svg width="42" height="57" viewBox="0 0 42 57" fill="none" xmlns="http://www.w3.org/2000/svg">
<path d="M20.1932 0L41.9972 10.7763V21.8327L29.5899 15.4881L29.6355 19.266C29.6355 19.266 42.2765 26.0295 41.9943 26.0295C41.7121 26.0295 42 36.8992 42 36.8992L29.1651 30.7413V34.5192L42 40.7224V52.0561L29.2135 45.8049V57L17.5589 52.8485V51.3572C17.5589 51.3572 -0.447628 52.5825 0.00852248 36.0304C0.370592 22.9024 12.0395 22.2544 12.0395 22.2544C12.0395 22.2544 5.2628 17.9473 8.48722 9.66413C11.6432 1.57343 20.196 2.75916 20.196 2.75916V0H20.1932Z" fill="white"/>
</svg>
